<?xml version="1.0" encoding="UTF-8"?>
<svg id="Layer_1" data-name="Layer 1" xmlns="http://www.w3.org/2000/svg" viewBox="0 0 792 612">
  <defs>
    <style>
      .cls-1 {
        fill: #7fc99a;
      }

      .cls-2 {
        fill: #e6aa34;
      }

      .cls-3 {
        fill: #f6f194;
      }

      .cls-4 {
        fill: #231f20;
      }

      .cls-5 {
        fill: none;
        stroke: #f6f194;
        stroke-miterlimit: 10;
      }
    </style>
  </defs>
  <rect class="cls-1" x="176.3" y="202.5" width="150.75" height="197.12"/>
  <g>
    <path class="cls-4" d="M226.67,244.02v87.99c-.02,1.99-.26,12.58-6.73,20.35-6.95,8.33-16.91,6.67-19.11,6.31-6.96-1.14-19.33-6.67-19.5-16.62-.15-9.08,9.94-15.59,10.51-15.95.45.86,3.98,7.34,10.09,7.7,3.15.19,5.58-1.34,6.73-2.2l-.42-87.57h18.43Z"/>
    <path class="cls-4" d="M278.9,295.47c.14,7.28.28,14.55.42,21.83,4.91-.18,9.81-.37,14.72-.55v15.02c-1.79,1.05-10.59,5.91-20.61.93-8.75-4.35-12.79-13.41-13.88-15.95-7.21-16.77-1.09-34.29,0-37.4,1.76-5.03,3.95-11.3,9.25-14.85,6.41-4.29,15.45-3.31,21.03,3.85,3.03,3.88,4.17,8.47,4.63,11,5.75-.55,11.5-1.1,17.24-1.65-.28-3.5-1.86-19.48-12.2-29.53-6.93-6.73-14.22-7.33-18.77-7.7-3.38-.28-17.14-1.4-28.75,10.6-15.74,16.26-14.93,43.58-14.72,50.55.22,7.54.86,28.69,13.88,43.89,12.05,14.06,26.69,13.66,30.7,13.46,16.25-.81,26.92-12.7,29.86-16.21v-47.85c-4.46-.89-9.7-1.53-15.56-1.5-6.59.04-12.4.92-17.24,2.05h0Z"/>
    <path class="cls-2" d="M344.09,301.12c3.36,1.15,6.73,2.3,10.09,3.44.98-8.98,1.96-17.96,2.94-26.95,7.01-1.1,14.02-2.2,21.03-3.3,2.85-.98,4.73-4.35,4.56-7.84-.14-2.81-1.6-5.33-3.71-6.46-6.31.92-12.62,1.83-18.93,2.75,1.52-5.13,3.05-10.27,4.57-15.4,8.2-1.28,16.4-2.57,24.6-3.85,1.77-4.03,3.54-8.07,5.31-12.1-12.33.44-22.5,1.91-29.91,3.3-15.52,2.9-21.09,5.85-22.41,11.18-.68,2.76-.07,5.54.59,7.52,2.52-.55,5.05-1.1,7.57-1.65-.98,5.34-1.96,10.69-2.94,16.03-6.43.28-10.57,5.11-10.51,9.27.04,2.98,2.24,5.25,3.11,6.05,1.63-.37,3.26-.73,4.89-1.1-.28,6.37-.56,12.74-.84,19.1h-.01Z"/>
    <path class="cls-2" d="M445.87,293.51c3.79-17.05,7.57-34.1,11.36-51.14,7.85-.73,15.7-1.47,23.55-2.2,2.55-.4,4.9-1.74,5.36-3.82.61-2.79-2.08-7.47-7.46-9.38-16.35,1.65-32.7,3.3-49.05,4.95-4.79,0-7.98,5.1-7.51,9.35.34,3.1,2.65,5.88,5.68,6.6,5.89-1.28,11.78-2.57,17.66-3.85-2.94,14.11-5.89,28.23-8.83,42.34,3.08,2.38,6.17,4.77,9.25,7.15h0Z"/>
    <path class="cls-3" d="M395.22,321.21c4.06-.18,8.12-.37,12.18-.55.83-3.72,2.27-12.24-1.02-19.52-5.55-12.31-20.11-11.15-25.46-10.72-3.92.31-17.46,1.39-27.34,15.95-7.09,10.45-13.56,29.69-7.15,46.74,6.22,16.56,20.48,20.16,24.43,21.16,1.5.38,22.64,5.37,29.82-10.16,2.36-5.1,2.45-10.77,2.1-14.85-3.64.37-7.29.73-10.93,1.1-.04,2.13-.38,4.81-1.68,7.15-4.23,7.62-16.37,7.42-23.76.6-8.14-7.51-10.6-23.08-6.94-34.15,6.46-19.49,31-22.15,35.75-13.75,1.57,2.77,1.09,6.95,0,11h0Z"/>
    <g>
      <path class="cls-3" d="M477.41,364.33c-.7,3.67-1.4,7.33-2.1,11h25.65c.28-3.67.56-7.33.84-11h-6.31c2.1-4.22,4.21-8.43,6.31-12.65h19.77l1.68,11.82h-5.89c-.7,3.94-1.4,7.88-2.1,11.82h24.39c.84-4.03,1.68-8.07,2.52-12.1-2.24.09-4.49.18-6.73.27-3.5-22.82-7.01-45.64-10.51-68.47h-11.8c-9.94,22.73-19.89,45.46-29.83,68.19-1.96.37-3.93.73-5.89,1.1v.02Z"/>
      <path class="cls-5" d="M516.11,311.98c1.12,8.43,2.24,16.86,3.36,25.3h-13.04c3.22-8.43,6.45-16.86,9.67-25.3h.01Z"/>
    </g>
    <path class="cls-3" d="M599.99,323.64c4.06-.18,8.12-.37,12.18-.55.83-3.72,2.27-12.24-1.02-19.52-5.55-12.31-20.11-11.15-25.46-10.72-3.92.31-17.46,1.39-27.34,15.95-7.09,10.45-13.56,29.69-7.15,46.74,6.22,16.56,20.48,20.16,24.43,21.16,1.5.38,22.64,5.37,29.82-10.16,2.36-5.1,2.45-10.77,2.1-14.85-3.64.37-7.29.73-10.93,1.1-.04,2.13-.38,4.81-1.68,7.15-4.23,7.62-16.37,7.42-23.76.6-8.14-7.51-10.6-23.08-6.94-34.15,6.46-19.49,31-22.15,35.75-13.75,1.57,2.77,1.09,6.95,0,11h0Z"/>
    <path class="cls-3" d="M618.3,308.23c2.55,0,5.1.01,7.65.02-2.27,18.51-4.54,37.02-6.81,55.53h-6.31c-.56,4.4-1.12,8.8-1.68,13.2h29.44c.42-4.61.84-9.22,1.26-13.82-2.94-.34-5.89-.68-8.83-1.03.84-7.52,1.68-15.03,2.52-22.55h29.86c-.98,7.33-1.96,14.66-2.94,22-2.38.18-4.77.37-7.15.55-.56,4.95-1.12,9.9-1.68,14.85h28.6c.42-4.95.84-9.9,1.26-14.85h-7.15c1.68-18.15,3.36-36.3,5.05-54.44,3.64.18,7.29.37,10.93.55v-14.85h-29.02c-.42,4.58-.84,9.17-1.26,13.75h7.15c-.7,7.33-1.4,14.66-2.1,22-10.23-.37-20.47-.73-30.7-1.1.98-6.78,1.96-13.57,2.94-20.35,2.24-.18,4.49-.37,6.73-.55.56-4.58,1.12-9.17,1.68-13.75h-27.34c-.7,4.95-1.4,9.9-2.1,14.85h0Z"/>
    <g>
      <ellipse class="cls-3" cx="443.57" cy="335.19" rx="31.76" ry="42.65"/>
      <ellipse class="cls-5" cx="443.57" cy="332.75" rx="21.06" ry="27.54"/>
    </g>
    <path class="cls-2" d="M395.4,231.42h28.81c2.54,1.16,4.35,3.66,4.42,6.28.08,3.36-2.73,5.54-4.42,6.85-3.1,2.41-6.19,2.44-7.78,2.28-2.38,11.23-4.77,22.46-7.15,33.69.66-.07,6.5-.56,9.67,5.14,1.14,2.04,2.34,5.59,1.68,8-1.03,3.74-7.13,6.8-31.01,2.43-3.48-2.37-5.94-5.85-5.58-8.42.43-3.07,5.02-5.83,11.36-4.3,2.8-12.37,5.61-24.75,8.41-37.12-1.87.16-16.75,1.37-17.66-3.7-.66-3.65,6.24-8.98,9.25-11.15v.02Z"/>
  </g>
</svg>